<?xml version="1.0" encoding="iso-8859-1"?>
<!-- Generator: Adobe Illustrator 17.1.0, SVG Export Plug-In . SVG Version: 6.00 Build 0)  -->
<!DOCTYPE svg PUBLIC "-//W3C//DTD SVG 1.1//EN" "http://www.w3.org/Graphics/SVG/1.1/DTD/svg11.dtd">
<svg version="1.1" id="Capa_1" xmlns="http://www.w3.org/2000/svg" xmlns:xlink="http://www.w3.org/1999/xlink" x="0px" y="0px"
	 viewBox="0 0 315.424 315.424" style="enable-background:new 0 0 315.424 315.424;" xml:space="preserve">
<g>
	<path d="M311.929,222.266l-96.119-67.342c-1.413-0.99-2.783-1.513-4.307-1.513c-3.307,0-6.471,2.512-6.471,7.313v41.05H19.886
		c-4.962,0-8.854,4.132-8.854,9.094v35.563c0,4.962,3.892,9.343,8.854,9.343h185.146v40.81c0,4.801,3.167,7.19,6.474,7.19
		c0.001,0-0.089,0-0.089,0c1.524,0,3.032-0.461,4.445-1.451l96.09-67.306c2.214-1.55,3.473-3.864,3.473-6.375
		S314.142,223.815,311.929,222.266z"/>
	<path d="M104.073,162.136L104.073,162.136c2.082,0,4.137-0.958,5.371-2.63c0.939-1.271,1.588-2.891,1.588-4.683v-41.05h184.476
		c4.963,0,8.524-4.132,8.524-9.094V69.117c0-4.962-3.561-9.343-8.524-9.343H111.032v-40.81c0-4.801-3.502-7.313-6.809-7.313
		c-1.524,0-3.154,0.523-4.567,1.513L3.502,80.5C1.289,82.051,0,84.38,0,86.891c0,2.511,1.26,4.84,3.473,6.391l96.115,67.342
		C101.001,161.613,102.549,162.136,104.073,162.136z"/>
</g>
<g>
</g>
<g>
</g>
<g>
</g>
<g>
</g>
<g>
</g>
<g>
</g>
<g>
</g>
<g>
</g>
<g>
</g>
<g>
</g>
<g>
</g>
<g>
</g>
<g>
</g>
<g>
</g>
<g>
</g>
</svg>
